# xmcd
#
# Track frame offsets: 
#        150
#        20648
#        60988
#        77159
#        99458
#        134012
#        158288
#        194965
#        223150
#        249393
#        265309
#        295838
#
# Disc length: 4396 seconds
#
# Revision: 0
# Processed by: cddbd v1.5.2PL0 Copyright (c) Steve Scherf et al.
# Submitted via: ExactAudioCopy v0.99pb4
#
DISCID=b0112a0c
DTITLE=David Clayton Thomas - In Concert - A Musical Biography
DYEAR=2005
DGENRE=Blues
TTITLE0=And When I Die
TTITLE1=Self-Centered Woman
TTITLE2=Go Down Gamblin'
TTITLE3=Me And Amaretto
TTITLE4=Lucretia MacEvil
TTITLE5=Wild Women and Po' Boys
TTITLE6=God Bless The Child
TTITLE7=Gimme That Wine
TTITLE8=Don`t Explain
TTITLE9=Spinning Wheel
TTITLE10=(You've Made Me) So Very Happy
TTITLE11=You're The One
EXTD=
EXTT0=
EXTT1=
EXTT2=
EXTT3=
EXTT4=
EXTT5=
EXTT6=
EXTT7=
EXTT8=
EXTT9=
EXTT10=
EXTT11=
PLAYORDER=
